<svg xmlns="http://www.w3.org/2000/svg" viewBox="0 0 240 240" role="img" aria-labelledby="title desc">
  <title id="title">FitMind AI logo</title>
  <desc id="desc">A modern health assistant logo combining a pulse line, leaf, and chat mark.</desc>
  <defs>
    <linearGradient id="bg" x1="30" y1="20" x2="210" y2="220" gradientUnits="userSpaceOnUse">
      <stop stop-color="#1fd47a"/>
      <stop offset="0.52" stop-color="#138a72"/>
      <stop offset="1" stop-color="#245d7a"/>
    </linearGradient>
    <linearGradient id="shine" x1="64" y1="50" x2="180" y2="190" gradientUnits="userSpaceOnUse">
      <stop stop-color="#ffffff"/>
      <stop offset="1" stop-color="#d9fff0"/>
    </linearGradient>
    <filter id="shadow" x="-20%" y="-20%" width="140%" height="140%">
      <feDropShadow dx="0" dy="16" stdDeviation="18" flood-color="#123424" flood-opacity="0.26"/>
    </filter>
  </defs>
  <rect x="24" y="24" width="192" height="192" rx="56" fill="url(#bg)" filter="url(#shadow)"/>
  <path d="M70 72 C70 58 82 48 96 51 C121 56 137 81 136 111 C134 153 103 179 70 188 Z" fill="#ffffff" opacity="0.94"/>
  <path d="M170 72 C170 58 158 48 144 51 C119 56 103 81 104 111 C106 153 137 179 170 188 Z" fill="#d9fff0" opacity="0.78"/>
  <path d="M78 122 H101 L113 93 L130 151 L145 113 H166" fill="none" stroke="#245d7a" stroke-width="13" stroke-linecap="round" stroke-linejoin="round"/>
  <path d="M84 125 H102 L114 98 L130 148 L144 116 H159" fill="none" stroke="#1fd47a" stroke-width="7" stroke-linecap="round" stroke-linejoin="round"/>
  <path d="M76 76 C103 77 125 91 138 116" fill="none" stroke="url(#shine)" stroke-width="9" stroke-linecap="round" opacity="0.76"/>
  <circle cx="162" cy="162" r="20" fill="#ffffff"/>
  <circle cx="162" cy="162" r="8" fill="#1fd47a"/>
</svg>
