<svg xmlns="http://www.w3.org/2000/svg" viewBox="0 0 960 620" role="img" aria-labelledby="title desc">
  <title id="title">Active wellness scene</title>
  <desc id="desc">A colorful fitness and nutrition illustration with movement, food, and recovery elements.</desc>
  <defs>
    <linearGradient id="sky" x1="0" y1="0" x2="1" y2="1">
      <stop offset="0" stop-color="#dff7ea"/>
      <stop offset="0.52" stop-color="#eaf5fb"/>
      <stop offset="1" stop-color="#fff1d6"/>
    </linearGradient>
    <linearGradient id="green" x1="0" y1="0" x2="1" y2="1">
      <stop offset="0" stop-color="#20b96e"/>
      <stop offset="1" stop-color="#0c7950"/>
    </linearGradient>
    <linearGradient id="blue" x1="0" y1="0" x2="1" y2="1">
      <stop offset="0" stop-color="#2b7394"/>
      <stop offset="1" stop-color="#174c6a"/>
    </linearGradient>
    <filter id="shadow" x="-20%" y="-20%" width="140%" height="140%">
      <feDropShadow dx="0" dy="16" stdDeviation="18" flood-color="#193d2a" flood-opacity="0.18"/>
    </filter>
  </defs>
  <rect width="960" height="620" rx="42" fill="url(#sky)"/>
  <circle cx="128" cy="104" r="72" fill="#fff" opacity="0.68"/>
  <circle cx="794" cy="126" r="98" fill="#ffffff" opacity="0.5"/>
  <path d="M0 448 C130 392 210 420 320 456 C448 498 526 456 642 414 C770 368 868 386 960 438 L960 620 L0 620 Z" fill="#c8eed8"/>
  <path d="M0 500 C156 446 270 468 390 506 C524 548 646 522 760 478 C850 444 918 454 960 478 L960 620 L0 620 Z" fill="#8edcb1"/>
  <g filter="url(#shadow)">
    <rect x="602" y="240" width="210" height="176" rx="32" fill="#fff"/>
    <rect x="632" y="276" width="150" height="14" rx="7" fill="#dce8df"/>
    <rect x="632" y="310" width="92" height="14" rx="7" fill="#dce8df"/>
    <circle cx="700" cy="366" r="34" fill="#fff2dd"/>
    <path d="M681 363 C694 345 718 346 728 365 C713 380 696 382 681 363 Z" fill="#ff7f50"/>
    <path d="M699 336 C704 319 720 314 734 320 C729 337 714 344 699 336 Z" fill="#20b96e"/>
  </g>
  <g filter="url(#shadow)">
    <rect x="144" y="268" width="224" height="126" rx="34" fill="#fff"/>
    <rect x="190" y="326" width="132" height="18" rx="9" fill="#174c6a"/>
    <circle cx="174" cy="335" r="18" fill="#20b96e"/>
    <circle cx="338" cy="335" r="18" fill="#20b96e"/>
    <rect x="236" y="236" width="42" height="70" rx="21" fill="#245d7a"/>
    <circle cx="257" cy="214" r="24" fill="#ffbf7b"/>
  </g>
  <g filter="url(#shadow)">
    <circle cx="472" cy="286" r="116" fill="#fff"/>
    <path d="M424 304 C430 256 468 226 514 238 C548 247 564 278 554 311 C545 343 514 360 478 355 C443 350 419 335 424 304 Z" fill="url(#green)"/>
    <path d="M458 250 C487 274 504 302 510 342" fill="none" stroke="#e6f7ee" stroke-width="12" stroke-linecap="round"/>
    <circle cx="510" cy="220" r="22" fill="#245d7a"/>
    <path d="M522 236 C548 252 563 274 570 304" fill="none" stroke="#245d7a" stroke-width="16" stroke-linecap="round"/>
  </g>
  <g fill="none" stroke-linecap="round" stroke-width="12">
    <path d="M110 190 C150 168 186 170 220 194" stroke="#20b96e"/>
    <path d="M690 172 C740 140 792 142 836 180" stroke="#245d7a"/>
    <path d="M156 470 C220 444 282 450 340 488" stroke="#fff" opacity="0.75"/>
  </g>
</svg>
